<svg xmlns="http://www.w3.org/2000/svg" viewBox="0 0 994.99 961.22"><defs><style>.cls-1{fill:#e2e0e0;}.cls-2{fill:#3f804a;}.cls-3{fill:#ee3130;}.cls-4{fill:#6e726e;}.cls-5{fill:#9f9f9e;}.cls-6{fill:#515251;}.cls-7{fill:none;stroke:#231f20;stroke-miterlimit:10;stroke-width:3px;}</style></defs><g id="Layer_4" data-name="Layer 4"><rect class="cls-1" x="1.03" width="993.96" height="961.22"/></g><g id="Layer_3" data-name="Layer 3"><path class="cls-2" d="M448,296.53c39.58,3,67.52,38.93,108.16,30.47,21.15-4.41,43.67-20.65,61.7-13.41,6.14,2.46,10.26,7.33,14.2,12.06,14.28,17.17,29.14,38.08,20.09,60.77-5.61,14.06-19.31,25.23-32.81,35a575.52,575.52,0,0,1-118.8,65.87c-24.38,10-51.44,19.7-66.47,39.76s-14,45.83-30.82,65c-22.39,25.49-65.73,26-92.63,11.53-8.33-4.49-16-10.25-20.11-18.12-9.36-17.71,1.13-41.67,17.31-59.07s37.4-30.61,55.56-46.48c3.1-2.71,6.18-5.59,8-9,2.47-4.75,2.1-9.88,1.35-14.63a103.86,103.86,0,0,0-23.84-51.69c-3.87-4.51-7.5-8.79-7.1-15.16.37-5.84,2.86-12,5.9-17.48a252.75,252.75,0,0,1,15-24.46c10.85-15.32,27.27-32.08,44.8-41.44C420,299.25,434.43,295.52,448,296.53Z" transform="translate(43.21 50.56)"/><path class="cls-3" d="M406.47,60.37c-32.67,3.74-63.33,17.57-92.06,33.56-34,18.94-69,45.26-75.87,83.59-2.75,15.42-.55,31.27-1.5,46.9s-6,32.42-19,41.12c-19.68,13.13-47.34,2.08-69.21,11.12-15.79,6.53-25.73,22.49-31.18,38.68-7.48,22.2-8.28,47.15.72,68.78s28.54,39.31,51.64,43.25c35.44,6.06,68.34-19.19,103.86-24.79,8.13-1.28,17.1-1.33,23.81,3.43,5.54,3.92,8.55,10.42,12.84,15.68,13.72,16.88,39.75,19.21,59.87,11s35.57-24.74,49.69-41.28,28-34,46.66-45.15c23.59-14.12,53.23-16.68,79.67-9.13,12.73,3.64,25.17,9.53,38.41,9.39,17-.18,32.53-10.53,43-23.83s16.79-29.4,22.81-45.25c3-7.79,5.92-15.9,5.24-24.19-.72-8.68-5.35-16.47-9.69-24a586.54,586.54,0,0,1-33.32-67.57c-3.71-8.94-7-18.52-7.16-28.3-.2-11,4.47-17.23,11.35-25.11,10.41-11.94.39-33.6-13.57-38.5-12.54-4.41-27.86,0-40.72.56-24,1.08-48.35-1.79-72.11-5C462.81,61.56,434.6,57.16,406.47,60.37Z" transform="translate(43.21 50.56)"/><path class="cls-4" d="M638.76.43a46.26,46.26,0,0,0-11.79,15c-8.08,16.48-5.1,33.21-3.38,42.23,4.65,24.25,17.33,39.93,25.22,50.7,0,0,15.79,21.54,44.76,87.07,29.61,67,9.9,157.29-27.74,215.31-24.26,37.39-29,19.75-96.29,92.91-68.73,74.69-87.24,118.53-94.61,138.53-7,19.1-10.89,38.64-18.58,77.71-15.53,78.85-11.1,107-5.07,126.7,4.84,15.86,8.48,27.79,18.58,38.86,27.76,30.41,74.71,22,145.29,16.89,144.5-10.39,193.53,7.33,248.33-27,11.87-7.44,41.89-26.26,53.18-61.18,4.17-12.88,4.29-23.29,4.31-33.68l.24-121.61c.08-39.37.17-78.88,5.72-117.85,3.39-23.77,8.78-47.21,12.39-70.94,10.81-71.31,5.24-144-.35-215.86-5.11-65.76-10.42-132.46-32.92-194.46-13-35.9-33.19-71.31-66-90.89C804.49-52.41,763.54-45,736.25-41.09c-36.66,5.25-59.8,18-77.18,27.8-9,5.08-15.48,9.52-20.31,13.72" transform="translate(43.21 50.56)"/><path class="cls-5" d="M36.65,729.5c8.54,6.47,19.9,9.56,26.21,18.23,4.28,5.87,5.51,13.41,9,19.78C79.27,781,95.39,787,110.54,789.45s31,2.59,45,8.92c12,5.42,21.68,15,33.61,20.56,16.36,7.57,35.24,6.79,53.18,5,15.39-1.56,31.44-4,43.88-13.23,17.85-13.19,24.12-37.1,25-59.27A179.19,179.19,0,0,0,268.56,629c-12.88-15-28.28-27.87-39.81-43.94-14.2-19.81-21.81-43.5-33.51-64.88s-29.61-41.74-53.59-46.06c-18.09-3.27-37,3.42-51.31,15A84,84,0,0,0,59.89,555.6c.24,8.46,1.77,17,.11,25.3-1.53,7.66-5.68,14.51-9.76,21.17-6.23,10.19-12.51,20.36-18.7,30.57-3.56,5.87-7.25,11.82-9.17,18.47-4.75,16.45-6.6,36.85-1.87,53.39a53.26,53.26,0,0,0,6.27,14.16C29.51,723,33.73,725.61,36.65,729.5Z" transform="translate(43.21 50.56)"/><path class="cls-6" d="M158.86,162.79c34.81-15.24,71.38-34.16,88.44-68.12,21.53-42.84-.4-101.78-44.69-120.14-10.64-4.41-22-6.68-33.32-8.91-40-7.92-80.63-15.88-121.17-11.82-6.95.7-14,1.77-20.34,4.59C16.6-36.67,8.41-26.93.63-17.51-15.26,1.74-31.54,21.7-38.59,45.64c-5.92,20.1-4.87,41.51-3.77,62.43,1.06,20.05,1.24,40.39,3.22,60.36,12.21,1.69,25.06.06,37.46,1.76,8.86,1.22,17.49,3.44,26.15,5.61,12.63,3.16,25.44,6.4,38.36,8.12,15.21,2,30.7.25,45.56-3.29C125.78,176.49,142.51,169.94,158.86,162.79Z" transform="translate(43.21 50.56)"/></g><g id="Layer_2" data-name="Layer 2"><path class="cls-7" d="M409.85,178.63c-4.72-.69-10.58-1.21-11.15.63a2.11,2.11,0,0,0,.52,1.65c3.14,4.4,26,4.88,19.76-2.93s-38.63,0-35,8.79,34.59,20.52,40.87,4.4,4.94-34.69-17.07-28.83-27.84,5.86-33.68,17.1-8.54,24.92-8.09,32.74,1.35,52.27,5.84,68.4,19.31,36.64,24.71,41,11.22,11.72,22.45,10.75,48.07-10.26,58.4-29.81,20.21-51.79,31-59.6,20.66-20,21.56-25.9-6.73-21-19.76-11.72-43.12,46.9-47.61,63.51-7.64,43-22.46,50.32-45.37,15.15-49.86-11.23-4.94-34.2-4.5-48.86,3.15-35.18,17.07-34.2,25.61,11.73,44.92-5.86,50.76-38.6,47.17-24.43S460.31,242,430.21,242.47s-25.15,3.42-39.08,11.72-57,14.17-57-16.12,5.84-67.91,29.2-77.19,71-13.68,93.43,3.9c18.9,14.81,20.62,16.11,21.76,17l.69.56c3.89,3.12,6.77,3.84,6.74,4.4-.08,1.5-20.78-4.22-39.08,2.93-19.61,7.67-18.14,24.49-37.28,26.87-15.72,2-28.3-1.46-38.63-10.74S339,177,326.45,184.33s-33.24,33.22-27.4,51.3A90.55,90.55,0,0,0,306.36,253c5.27,9,11.29,14.69,20.84,23.67,6.65,6.25,8.63,7.29,15.57,14.33,4.11,4.16,5.42,5.83,9.09,9.22A64.73,64.73,0,0,0,366,311.36C390.24,325,404.61,328,408.2,335.3s18.42,58.63,18,88.43-1.35,107-1.35,107c5.73-35.63,18.49-51.61,29.2-59.61s18-7.13,44.17-23.45c16-10,21.74-15.59,25.75-20.2,9.88-11.34,14.43-22.67,18.12-32.08C552.85,367.86,555.12,339,556,339.21c1.79.48-71,15.14-88,43-16.57,27-27.65,52.34-31.45,80.61-16.9,126-8.85,344.39-7.63,375.72" transform="translate(43.21 50.56)"/><path class="cls-7" d="M432.91,497.83c13.94-51.25,34.32-81.54,51.38-100.12,28.1-30.62,54.35-49.75,71.7-58.5" transform="translate(43.21 50.56)"/></g></svg>